HIERARCHY
ROOT Hips
{
  OFFSET 0.00000 0.00000 0.05000
  CHANNELS 6 Xposition Yposition Zposition Zrotation Xrotation Yrotation
  JOINT J1
  {
    OFFSET 0.09850 2.29188 0.05000
    CHANNELS 3 Zrotation Xrotation Yrotation
    JOINT J0
    {
      OFFSET 0.13604 1.03686 0.05000
      CHANNELS 3 Zrotation Xrotation Yrotation
    }
    JOINT J2
    {
      OFFSET -0.71943 0.03834 0.05000
      CHANNELS 3 Zrotation Xrotation Yrotation
      JOINT J3
      {
        OFFSET -0.27920 -1.03632 0.05000
        CHANNELS 3 Zrotation Xrotation Yrotation
        JOINT J4
        {
          OFFSET -0.09077 -1.04488 0.05000
          CHANNELS 3 Zrotation Xrotation Yrotation
        }
      }
    }
    JOINT J5
    {
      OFFSET 0.72655 -0.04519 0.05000
      CHANNELS 3 Zrotation Xrotation Yrotation
      JOINT J6
      {
        OFFSET 0.22633 -1.11168 0.05000
        CHANNELS 3 Zrotation Xrotation Yrotation
        JOINT J7
        {
          OFFSET 0.07602 -1.06738 0.05000
          CHANNELS 3 Zrotation Xrotation Yrotation
        }
      }
    }
  }
  JOINT J9
  {
    OFFSET -0.45389 0.01507 0.05000
    CHANNELS 3 Zrotation Xrotation Yrotation
    JOINT J10
    {
      OFFSET 0.03044 -2.01210 0.05000
      CHANNELS 3 Zrotation Xrotation Yrotation
      JOINT J11
      {
        OFFSET 0.00000 0.00000 0.05000
        CHANNELS 3 Zrotation Xrotation Yrotation
      }
    }
  }
  JOINT J12
  {
    OFFSET 0.46166 0.01504 0.05000
    CHANNELS 3 Zrotation Xrotation Yrotation
    JOINT J13
    {
      OFFSET -0.06810 -1.91390 0.05000
      CHANNELS 3 Zrotation Xrotation Yrotation
      JOINT J14
      {
        OFFSET 0.00000 0.00000 0.05000
        CHANNELS 3 Zrotation Xrotation Yrotation
      }
    }
  }
}
MOTION
Frames: 26
Frame Time: 0.033333
2.39711 -5.42943 0.05000 0 0 0 88.63 0.00 0.00 88.44 0.00 0.00 178.31 0.00 0.00 163.70 0.00 0.00 46.84 0.00 0.00 -1.79 0.00 0.00 12.97 0.00 0.00 134.80 0.00 0.00 177.32 0.00 0.00 -88.12 0.00 0.00 105.05 0.00 0.00 -1.07 0.00 0.00 -93.77 0.00 0.00 110.66 0.00 0.00
2.39274 -5.42951 0.05000 0 0 0 88.53 0.00 0.00 88.45 0.00 0.00 178.31 0.00 0.00 163.69 0.00 0.00 46.84 0.00 0.00 -1.79 0.00 0.00 12.97 0.00 0.00 134.80 0.00 0.00 177.29 0.00 0.00 -88.13 0.00 0.00 105.04 0.00 0.00 -1.59 0.00 0.00 -93.62 0.00 0.00 110.64 0.00 0.00
2.38835 -5.42954 0.05000 0 0 0 88.43 0.00 0.00 88.45 0.00 0.00 178.31 0.00 0.00 163.69 0.00 0.00 46.84 0.00 0.00 -1.79 0.00 0.00 12.97 0.00 0.00 134.79 0.00 0.00 177.27 0.00 0.00 -88.13 0.00 0.00 105.03 0.00 0.00 -1.59 0.00 0.00 -93.47 0.00 0.00 110.63 0.00 0.00
2.38827 -5.42947 0.05000 0 0 0 88.42 0.00 0.00 88.45 0.00 0.00 178.31 0.00 0.00 163.69 0.00 0.00 46.85 0.00 0.00 -1.79 0.00 0.00 12.98 0.00 0.00 134.79 0.00 0.00 177.26 0.00 0.00 -88.14 0.00 0.00 105.02 0.00 0.00 -1.07 0.00 0.00 -93.46 0.00 0.00 110.63 0.00 0.00
2.38827 -5.42938 0.05000 0 0 0 88.42 0.00 0.00 88.46 0.00 0.00 178.31 0.00 0.00 163.69 0.00 0.00 46.85 0.00 0.00 -1.79 0.00 0.00 13.03 0.00 0.00 134.60 0.00 0.00 176.73 0.00 0.00 -88.14 0.00 0.00 105.01 0.00 0.00 -0.54 0.00 0.00 -93.45 0.00 0.00 110.63 0.00 0.00
2.38820 -5.42930 0.05000 0 0 0 88.42 0.00 0.00 88.46 0.00 0.00 178.31 0.00 0.00 163.69 0.00 0.00 46.85 0.00 0.00 -1.79 0.00 0.00 12.97 0.00 0.00 134.79 0.00 0.00 176.20 0.00 0.00 -88.03 0.00 0.00 105.03 0.00 0.00 -0.55 0.00 0.00 -93.30 0.00 0.00 110.61 0.00 0.00
2.38813 -5.42477 0.05000 0 0 0 88.42 0.00 0.00 88.46 0.00 0.00 178.31 0.00 0.00 163.70 0.00 0.00 46.85 0.00 0.00 -1.79 0.00 0.00 12.97 0.00 0.00 134.78 0.00 0.00 176.21 0.00 0.00 -88.04 0.00 0.00 105.03 0.00 0.00 -0.01 0.00 0.00 -93.15 0.00 0.00 110.61 0.00 0.00
2.38809 -5.42027 0.05000 0 0 0 88.41 0.00 0.00 88.46 0.00 0.00 178.31 0.00 0.00 163.71 0.00 0.00 47.04 0.00 0.00 -1.79 0.00 0.00 12.97 0.00 0.00 134.59 0.00 0.00 176.73 0.00 0.00 -88.16 0.00 0.00 105.00 0.00 0.00 -0.55 0.00 0.00 -93.03 0.00 0.00 110.62 0.00 0.00
2.38801 -5.41584 0.05000 0 0 0 88.41 0.00 0.00 88.47 0.00 0.00 178.31 0.00 0.00 163.72 0.00 0.00 47.23 0.00 0.00 -1.79 0.00 0.00 12.96 0.00 0.00 134.40 0.00 0.00 177.27 0.00 0.00 -88.17 0.00 0.00 104.99 0.00 0.00 -1.10 0.00 0.00 -92.90 0.00 0.00 110.62 0.00 0.00
2.38785 -5.41581 0.05000 0 0 0 88.41 0.00 0.00 88.46 0.00 0.00 178.31 0.00 0.00 163.72 0.00 0.00 47.23 0.00 0.00 -1.80 0.00 0.00 12.91 0.00 0.00 134.40 0.00 0.00 177.80 0.00 0.00 -88.16 0.00 0.00 105.00 0.00 0.00 -1.11 0.00 0.00 -92.77 0.00 0.00 110.63 0.00 0.00
2.38771 -5.41139 0.05000 0 0 0 88.40 0.00 0.00 88.47 0.00 0.00 178.31 0.00 0.00 163.72 0.00 0.00 47.23 0.00 0.00 -1.80 0.00 0.00 12.91 0.00 0.00 134.22 0.00 0.00 178.86 0.00 0.00 -88.15 0.00 0.00 105.00 0.00 0.00 -1.11 0.00 0.00 -92.77 0.00 0.00 110.65 0.00 0.00
2.38763 -5.41579 0.05000 0 0 0 88.40 0.00 0.00 88.47 0.00 0.00 178.31 0.00 0.00 163.73 0.00 0.00 47.23 0.00 0.00 -1.80 0.00 0.00 12.96 0.00 0.00 133.86 0.00 0.00 178.86 0.00 0.00 -88.14 0.00 0.00 105.00 0.00 0.00 -1.11 0.00 0.00 -92.78 0.00 0.00 110.66 0.00 0.00
2.38753 -5.42019 0.05000 0 0 0 88.40 0.00 0.00 88.48 0.00 0.00 178.30 0.00 0.00 163.74 0.00 0.00 47.05 0.00 0.00 -1.80 0.00 0.00 12.96 0.00 0.00 133.85 0.00 0.00 178.34 0.00 0.00 -88.14 0.00 0.00 105.00 0.00 0.00 -0.57 0.00 0.00 -92.79 0.00 0.00 110.68 0.00 0.00
2.38315 -5.42013 0.05000 0 0 0 88.30 0.00 0.00 88.48 0.00 0.00 178.30 0.00 0.00 163.95 0.00 0.00 47.23 0.00 0.00 -1.80 0.00 0.00 13.01 0.00 0.00 133.45 0.00 0.00 177.79 0.00 0.00 -88.14 0.00 0.00 105.01 0.00 0.00 -0.57 0.00 0.00 -92.79 0.00 0.00 110.69 0.00 0.00
2.38319 -5.41568 0.05000 0 0 0 88.30 0.00 0.00 88.48 0.00 0.00 178.30 0.00 0.00 164.18 0.00 0.00 47.98 0.00 0.00 -1.80 0.00 0.00 12.83 0.00 0.00 132.66 0.00 0.00 177.78 0.00 0.00 -88.14 0.00 0.00 105.00 0.00 0.00 -0.57 0.00 0.00 -92.78 0.00 0.00 110.69 0.00 0.00
2.38324 -5.41560 0.05000 0 0 0 88.30 0.00 0.00 88.48 0.00 0.00 178.29 0.00 0.00 164.41 0.00 0.00 49.11 0.00 0.00 -1.80 0.00 0.00 12.42 0.00 0.00 131.46 0.00 0.00 177.25 0.00 0.00 -88.15 0.00 0.00 105.00 0.00 0.00 -0.58 0.00 0.00 -92.79 0.00 0.00 110.69 0.00 0.00
2.38325 -5.41112 0.05000 0 0 0 88.40 0.00 0.00 88.20 0.00 0.00 178.29 0.00 0.00 164.80 0.00 0.00 50.64 0.00 0.00 -1.79 0.00 0.00 11.67 0.00 0.00 130.05 0.00 0.00 177.27 0.00 0.00 -88.03 0.00 0.00 105.00 0.00 0.00 -0.58 0.00 0.00 -92.77 0.00 0.00 110.66 0.00 0.00
2.38335 -5.40670 0.05000 0 0 0 88.50 0.00 0.00 87.92 0.00 0.00 178.29 0.00 0.00 165.40 0.00 0.00 52.70 0.00 0.00 -1.79 0.00 0.00 10.69 0.00 0.00 128.25 0.00 0.00 177.27 0.00 0.00 -87.92 0.00 0.00 105.01 0.00 0.00 -1.11 0.00 0.00 -92.89 0.00 0.00 110.63 0.00 0.00
2.38767 -5.41571 0.05000 0 0 0 88.71 0.00 0.00 87.63 0.00 0.00 178.29 0.00 0.00 166.03 0.00 0.00 54.82 0.00 0.00 -1.78 0.00 0.00 9.22 0.00 0.00 126.50 0.00 0.00 177.32 0.00 0.00 -87.92 0.00 0.00 104.96 0.00 0.00 -0.58 0.00 0.00 -92.89 0.00 0.00 110.60 0.00 0.00
2.38770 -5.42028 0.05000 0 0 0 88.81 0.00 0.00 87.35 0.00 0.00 178.29 0.00 0.00 166.95 0.00 0.00 56.47 0.00 0.00 -1.78 0.00 0.00 7.75 0.00 0.00 124.92 0.00 0.00 177.32 0.00 0.00 -88.05 0.00 0.00 104.91 0.00 0.00 -1.11 0.00 0.00 -93.02 0.00 0.00 110.58 0.00 0.00
2.38332 -5.42936 0.05000 0 0 0 88.81 0.00 0.00 87.06 0.00 0.00 178.28 0.00 0.00 168.08 0.00 0.00 58.06 0.00 0.00 -1.78 0.00 0.00 6.29 0.00 0.00 123.67 0.00 0.00 177.31 0.00 0.00 -88.04 0.00 0.00 104.88 0.00 0.00 -1.10 0.00 0.00 -93.03 0.00 0.00 110.58 0.00 0.00
2.37898 -5.43845 0.05000 0 0 0 88.72 0.00 0.00 87.05 0.00 0.00 178.26 0.00 0.00 169.09 0.00 0.00 59.26 0.00 0.00 -1.78 0.00 0.00 4.89 0.00 0.00 122.66 0.00 0.00 177.28 0.00 0.00 -88.16 0.00 0.00 104.85 0.00 0.00 -1.09 0.00 0.00 -93.05 0.00 0.00 110.59 0.00 0.00
2.37454 -5.44300 0.05000 0 0 0 88.62 0.00 0.00 87.05 0.00 0.00 178.26 0.00 0.00 169.83 0.00 0.00 60.07 0.00 0.00 -1.78 0.00 0.00 3.75 0.00 0.00 121.73 0.00 0.00 177.28 0.00 0.00 -88.15 0.00 0.00 104.83 0.00 0.00 -1.09 0.00 0.00 -92.94 0.00 0.00 110.61 0.00 0.00
2.37018 -5.43858 0.05000 0 0 0 88.52 0.00 0.00 87.04 0.00 0.00 178.26 0.00 0.00 170.33 0.00 0.00 60.42 0.00 0.00 -1.78 0.00 0.00 3.06 0.00 0.00 121.16 0.00 0.00 177.25 0.00 0.00 -88.16 0.00 0.00 104.84 0.00 0.00 -1.60 0.00 0.00 -93.08 0.00 0.00 110.61 0.00 0.00
2.36574 -5.43861 0.05000 0 0 0 88.41 0.00 0.00 87.04 0.00 0.00 178.26 0.00 0.00 170.56 0.00 0.00 60.86 0.00 0.00 -1.77 0.00 0.00 2.60 0.00 0.00 120.68 0.00 0.00 177.24 0.00 0.00 -88.03 0.00 0.00 104.86 0.00 0.00 -1.60 0.00 0.00 -93.10 0.00 0.00 110.60 0.00 0.00
2.37007 -5.43410 0.05000 0 0 0 88.51 0.00 0.00 87.04 0.00 0.00 178.26 0.00 0.00 170.79 0.00 0.00 61.30 0.00 0.00 -1.77 0.00 0.00 2.37 0.00 0.00 120.06 0.00 0.00 177.24 0.00 0.00 -88.16 0.00 0.00 104.86 0.00 0.00 -2.15 0.00 0.00 -93.24 0.00 0.00 110.57 0.00 0.00
